<svg xmlns="http://www.w3.org/2000/svg" viewBox="0 0 512 512">
  <rect width="512" height="512" rx="112" fill="#123047"/>
  <circle cx="256" cy="256" r="168" fill="#f7f2e8"/>
  <path fill="#123047" d="M158 198c0-24 20-44 44-44h108c24 0 44 20 44 44v116c0 24-20 44-44 44H202c-24 0-44-20-44-44V198Zm44-8c-4 0-8 4-8 8v116c0 4 4 8 8 8h108c4 0 8-4 8-8V198c0-4-4-8-8-8H202Z"/>
  <path fill="#1e7a5a" d="M222 232h68c10 0 18 8 18 18s-8 18-18 18h-68c-10 0-18-8-18-18s8-18 18-18Z"/>
  <path fill="#c9891f" d="M222 282h42c10 0 18 8 18 18s-8 18-18 18h-42c-10 0-18-8-18-18s8-18 18-18Z"/>
  <path fill="#b83a3a" d="M330 134c-7-7-7-18 0-25s18-7 25 0l48 48c7 7 7 18 0 25l-48 48c-7 7-18 7-25 0s-7-18 0-25l18-18H219c-10 0-18-8-18-18s8-18 18-18h129l-18-17Z"/>
</svg>
